<mxfile host="app.diagrams.net" modified="2024-05-12T23:50:41.542Z" agent="Mozilla/5.0 (Windows NT 10.0; Win64; x64) AppleWebKit/537.36 (KHTML, like Gecko) Chrome/124.0.0.0 Safari/537.36 Edg/124.0.0.0" etag="d-BNiclUlS5khl7jt_w_" version="24.4.0" type="github">
  <diagram name="PÃ¡gina-1" id="7wLsjLNFtuPF0WqRtEe8">
    <mxGraphModel dx="730" dy="775" grid="1" gridSize="10" guides="1" tooltips="1" connect="1" arrows="1" fold="1" page="1" pageScale="1" pageWidth="827" pageHeight="1169" math="0" shadow="0">
      <root>
        <mxCell id="0" />
        <mxCell id="1" parent="0" />
        <mxCell id="rOdS8APsvN7HkrKA7R2p-3" value="" style="edgeStyle=orthogonalEdgeStyle;rounded=0;orthogonalLoop=1;jettySize=auto;html=1;" edge="1" parent="1" source="rOdS8APsvN7HkrKA7R2p-1" target="rOdS8APsvN7HkrKA7R2p-2">
          <mxGeometry relative="1" as="geometry" />
        </mxCell>
        <mxCell id="rOdS8APsvN7HkrKA7R2p-1" value="INICIO 14" style="ellipse;whiteSpace=wrap;html=1;" vertex="1" parent="1">
          <mxGeometry x="130" y="30" width="120" height="80" as="geometry" />
        </mxCell>
        <mxCell id="rOdS8APsvN7HkrKA7R2p-5" value="" style="edgeStyle=orthogonalEdgeStyle;rounded=0;orthogonalLoop=1;jettySize=auto;html=1;" edge="1" parent="1" source="rOdS8APsvN7HkrKA7R2p-2" target="rOdS8APsvN7HkrKA7R2p-4">
          <mxGeometry relative="1" as="geometry" />
        </mxCell>
        <mxCell id="rOdS8APsvN7HkrKA7R2p-2" value="int n,string ns=to_string(n),bool pal" style="whiteSpace=wrap;html=1;" vertex="1" parent="1">
          <mxGeometry x="85" y="160" width="210" height="60" as="geometry" />
        </mxCell>
        <mxCell id="rOdS8APsvN7HkrKA7R2p-7" value="" style="edgeStyle=orthogonalEdgeStyle;rounded=0;orthogonalLoop=1;jettySize=auto;html=1;" edge="1" parent="1" source="rOdS8APsvN7HkrKA7R2p-4" target="rOdS8APsvN7HkrKA7R2p-6">
          <mxGeometry relative="1" as="geometry" />
        </mxCell>
        <mxCell id="rOdS8APsvN7HkrKA7R2p-16" value="" style="edgeStyle=orthogonalEdgeStyle;rounded=0;orthogonalLoop=1;jettySize=auto;html=1;" edge="1" parent="1" source="rOdS8APsvN7HkrKA7R2p-4" target="rOdS8APsvN7HkrKA7R2p-15">
          <mxGeometry relative="1" as="geometry" />
        </mxCell>
        <mxCell id="rOdS8APsvN7HkrKA7R2p-4" value="int i=0;i&amp;lt;ns.size()" style="rhombus;whiteSpace=wrap;html=1;" vertex="1" parent="1">
          <mxGeometry x="120" y="280" width="140" height="80" as="geometry" />
        </mxCell>
        <mxCell id="rOdS8APsvN7HkrKA7R2p-9" value="" style="edgeStyle=orthogonalEdgeStyle;rounded=0;orthogonalLoop=1;jettySize=auto;html=1;" edge="1" parent="1" source="rOdS8APsvN7HkrKA7R2p-6" target="rOdS8APsvN7HkrKA7R2p-8">
          <mxGeometry relative="1" as="geometry" />
        </mxCell>
        <mxCell id="rOdS8APsvN7HkrKA7R2p-11" value="" style="edgeStyle=orthogonalEdgeStyle;rounded=0;orthogonalLoop=1;jettySize=auto;html=1;" edge="1" parent="1" source="rOdS8APsvN7HkrKA7R2p-6" target="rOdS8APsvN7HkrKA7R2p-10">
          <mxGeometry relative="1" as="geometry" />
        </mxCell>
        <mxCell id="rOdS8APsvN7HkrKA7R2p-6" value="ns[i]==ns[ns.size()-1-i]" style="rhombus;whiteSpace=wrap;html=1;" vertex="1" parent="1">
          <mxGeometry x="300" y="280" width="170" height="80" as="geometry" />
        </mxCell>
        <mxCell id="rOdS8APsvN7HkrKA7R2p-13" style="edgeStyle=orthogonalEdgeStyle;rounded=0;orthogonalLoop=1;jettySize=auto;html=1;entryX=1;entryY=0.5;entryDx=0;entryDy=0;" edge="1" parent="1" source="rOdS8APsvN7HkrKA7R2p-8" target="rOdS8APsvN7HkrKA7R2p-12">
          <mxGeometry relative="1" as="geometry">
            <Array as="points">
              <mxPoint x="545" y="255" />
            </Array>
          </mxGeometry>
        </mxCell>
        <mxCell id="rOdS8APsvN7HkrKA7R2p-8" value="&amp;nbsp;pal=true" style="whiteSpace=wrap;html=1;" vertex="1" parent="1">
          <mxGeometry x="510" y="290" width="70" height="60" as="geometry" />
        </mxCell>
        <mxCell id="rOdS8APsvN7HkrKA7R2p-17" style="edgeStyle=orthogonalEdgeStyle;rounded=0;orthogonalLoop=1;jettySize=auto;html=1;entryX=0.5;entryY=0;entryDx=0;entryDy=0;" edge="1" parent="1" source="rOdS8APsvN7HkrKA7R2p-10" target="rOdS8APsvN7HkrKA7R2p-15">
          <mxGeometry relative="1" as="geometry" />
        </mxCell>
        <mxCell id="rOdS8APsvN7HkrKA7R2p-10" value="pal=false;" style="whiteSpace=wrap;html=1;" vertex="1" parent="1">
          <mxGeometry x="345" y="390" width="80" height="60" as="geometry" />
        </mxCell>
        <mxCell id="rOdS8APsvN7HkrKA7R2p-14" style="edgeStyle=orthogonalEdgeStyle;rounded=0;orthogonalLoop=1;jettySize=auto;html=1;" edge="1" parent="1" source="rOdS8APsvN7HkrKA7R2p-12" target="rOdS8APsvN7HkrKA7R2p-4">
          <mxGeometry relative="1" as="geometry" />
        </mxCell>
        <mxCell id="rOdS8APsvN7HkrKA7R2p-12" value="i++" style="rounded=0;whiteSpace=wrap;html=1;" vertex="1" parent="1">
          <mxGeometry x="350" y="240" width="75" height="30" as="geometry" />
        </mxCell>
        <mxCell id="rOdS8APsvN7HkrKA7R2p-27" style="edgeStyle=orthogonalEdgeStyle;rounded=0;orthogonalLoop=1;jettySize=auto;html=1;entryX=0;entryY=0.5;entryDx=0;entryDy=0;" edge="1" parent="1" source="rOdS8APsvN7HkrKA7R2p-15" target="rOdS8APsvN7HkrKA7R2p-25">
          <mxGeometry relative="1" as="geometry" />
        </mxCell>
        <mxCell id="rOdS8APsvN7HkrKA7R2p-30" value="" style="edgeStyle=orthogonalEdgeStyle;rounded=0;orthogonalLoop=1;jettySize=auto;html=1;" edge="1" parent="1" source="rOdS8APsvN7HkrKA7R2p-15" target="rOdS8APsvN7HkrKA7R2p-29">
          <mxGeometry relative="1" as="geometry" />
        </mxCell>
        <mxCell id="rOdS8APsvN7HkrKA7R2p-15" value="pal==true" style="rhombus;whiteSpace=wrap;html=1;" vertex="1" parent="1">
          <mxGeometry x="150" y="440" width="80" height="80" as="geometry" />
        </mxCell>
        <mxCell id="rOdS8APsvN7HkrKA7R2p-18" value="no" style="text;html=1;align=center;verticalAlign=middle;whiteSpace=wrap;rounded=0;" vertex="1" parent="1">
          <mxGeometry x="384" y="360" width="60" height="30" as="geometry" />
        </mxCell>
        <mxCell id="rOdS8APsvN7HkrKA7R2p-19" value="si" style="text;html=1;align=center;verticalAlign=middle;whiteSpace=wrap;rounded=0;" vertex="1" parent="1">
          <mxGeometry x="450" y="290" width="60" height="30" as="geometry" />
        </mxCell>
        <mxCell id="rOdS8APsvN7HkrKA7R2p-20" value="si" style="text;html=1;align=center;verticalAlign=middle;whiteSpace=wrap;rounded=0;" vertex="1" parent="1">
          <mxGeometry x="250" y="290" width="60" height="30" as="geometry" />
        </mxCell>
        <mxCell id="rOdS8APsvN7HkrKA7R2p-33" style="edgeStyle=orthogonalEdgeStyle;rounded=0;orthogonalLoop=1;jettySize=auto;html=1;" edge="1" parent="1" source="rOdS8APsvN7HkrKA7R2p-25" target="rOdS8APsvN7HkrKA7R2p-31">
          <mxGeometry relative="1" as="geometry" />
        </mxCell>
        <mxCell id="rOdS8APsvN7HkrKA7R2p-25" value="devuelve&amp;nbsp;&lt;div&gt;Es palindrome&lt;br&gt;&lt;/div&gt;" style="shape=parallelogram;perimeter=parallelogramPerimeter;whiteSpace=wrap;html=1;fixedSize=1;" vertex="1" parent="1">
          <mxGeometry x="324" y="480" width="120" height="60" as="geometry" />
        </mxCell>
        <mxCell id="rOdS8APsvN7HkrKA7R2p-32" value="" style="edgeStyle=orthogonalEdgeStyle;rounded=0;orthogonalLoop=1;jettySize=auto;html=1;" edge="1" parent="1" source="rOdS8APsvN7HkrKA7R2p-29" target="rOdS8APsvN7HkrKA7R2p-31">
          <mxGeometry relative="1" as="geometry" />
        </mxCell>
        <mxCell id="rOdS8APsvN7HkrKA7R2p-29" value="devuelve&amp;nbsp;&lt;div&gt;No es palindrome&lt;br&gt;&lt;/div&gt;" style="shape=parallelogram;perimeter=parallelogramPerimeter;whiteSpace=wrap;html=1;fixedSize=1;" vertex="1" parent="1">
          <mxGeometry x="130" y="560" width="120" height="60" as="geometry" />
        </mxCell>
        <mxCell id="rOdS8APsvN7HkrKA7R2p-31" value="FIN" style="ellipse;whiteSpace=wrap;html=1;" vertex="1" parent="1">
          <mxGeometry x="530" y="560" width="80" height="60" as="geometry" />
        </mxCell>
        <mxCell id="rOdS8APsvN7HkrKA7R2p-34" value="si" style="text;html=1;align=center;verticalAlign=middle;whiteSpace=wrap;rounded=0;" vertex="1" parent="1">
          <mxGeometry x="230" y="450" width="60" height="30" as="geometry" />
        </mxCell>
        <mxCell id="rOdS8APsvN7HkrKA7R2p-35" value="no" style="text;html=1;align=center;verticalAlign=middle;whiteSpace=wrap;rounded=0;" vertex="1" parent="1">
          <mxGeometry x="180" y="520" width="60" height="30" as="geometry" />
        </mxCell>
      </root>
    </mxGraphModel>
  </diagram>
</mxfile>
